PathFileType	4	(X/Y/Z)	Walk3.trc
DataRate	CameraRate	NumFrames	NumMarkers	Units	OrigDataRate	OrigDataStartFrame	OrigNumFrames
200.000000	200.000000	7	59	mm	200.000000	447	508
Frame#	Times		LFHD		RFHD		LBHD		RBHD		C7		T10		CLAV		STRN		RBack		LASI		RACR1		RUA1		RElbow		RFA1		RWRR		RWRU		RCAR		LACR1		LUA1		LElbow		LElbowM		LFA1		LWRR		LWRU		LCAR		RTH1		RTH3		RTH2		RTB1		RTB4		LTH1		LTH3		LTH2		LTH4		LLFC		LTB1		LTB2		LTB4		LMT1		LToe		LMMAL		RTB2		RTH4		LCAL		LTB3		RElbowM		LMT5		RTB3		LPSI		RPSI		LLMAL		RLFC		RASI		RMT1		RToe		RCAL		RMMAL		RMT5		RLMAL
			X1	Y1	Z1	X2	Y2	Z2	X3	Y3	Z3	X4	Y4	Z4	X5	Y5	Z5	X6	Y6	Z6	X7	Y7	Z7	X8	Y8	Z8	X9	Y9	Z9	X10	Y10	Z10	X11	Y11	Z11	X12	Y12	Z12	X13	Y13	Z13	X14	Y14	Z14	X15	Y15	Z15	X16	Y16	Z16	X17	Y17	Z17	X18	Y18	Z18	X19	Y19	Z19	X20	Y20	Z20	X21	Y21	Z21	X22	Y22	Z22	X23	Y23	Z23	X24	Y24	Z24	X25	Y25	Z25	X26	Y26	Z26	X27	Y27	Z27	X28	Y28	Z28	X29	Y29	Z29	X30	Y30	Z30	X31	Y31	Z31	X32	Y32	Z32	X33	Y33	Z33	X34	Y34	Z34	X35	Y35	Z35	X36	Y36	Z36	X37	Y37	Z37	X38	Y38	Z38	X39	Y39	Z39	X40	Y40	Z40	X41	Y41	Z41	X42	Y42	Z42	X43	Y43	Z43	X44	Y44	Z44	X45	Y45	Z45	X46	Y46	Z46	X47	Y47	Z47	X48	Y48	Z48	X49	Y49	Z49	X50	Y50	Z50	X51	Y51	Z51	X52	Y52	Z52	X53	Y53	Z53	X54	Y54	Z54	X55	Y55	Z55	X56	Y56	Z56	X57	Y57	Z57	X58	Y58	Z58	X59	Y59	Z59

447	2.235	576.8	1425.2	-15.219	568.24	1409.4	80.047	451.23	1346.7	-49.767	440.41	1332.9	82.934	412.53	1257	7.258	326.45	1055.8	14.484	554.62	1173.5	6.6472	607.49	1067.2	9.5017	366.49	1131.1	124.7	543.43	804.74	-148.54	485.81	1197.1	188.66	517.41	1051.3	262.46	528.28	924.39	292.73	613.94	824.7	281.07	654.31	738.68	234.18	624.75	723.03	298	688.22	689.5	281.1	478.92	1204	-182.22	477.79	1039	-255.3	430.09	930.47	-270.93	402.91	904.79	-204.28	463.29	833.69	-315.63	472.02	716.67	-310.55	425.34	732.92	-350.37	448.08	675.3	-361.37	466.8	628.03	224.06	435.01	462.83	182.24	505.36	540.47	185.89	373.86	268.17	112.98	310	210.5	95.967	508.07	645.19	-198.08	546.59	482.85	-146.78	575.09	586.36	-147.54	527.48	563.97	-175.93	587.25	401.37	-108.5	623.92	308.86	-41.567	608.01	217.84	-94.751	627.08	221.53	-35.701	723.54	38.949	-6.3202	770.99	36.888	-32.76	617.08	75.915	14.052	279.25	231.28	144.55	449.04	545.66	205.84	554.93	41.876	-18.255	636.79	139.01	-31.51	474.27	885.11	227.88	678.81	19.731	-86.294	252.22	151.42	79.352	284.49	826.48	-38.047	290.48	830.12	67.686	595.19	57.875	-63.347	389.46	382.35	163.94	549.15	813.85	173.02	227.2	40.369	23.649	272.45	27.004	53.925	119.89	155.61	58.833	193.26	136.78	27.015	200.58	35.497	112.27	171.09	130.46	105.91
448	2.24	582.46	1425.7	-16.085	573.76	1410.1	79.165	456.95	1347.2	-50.795	445.94	1333.5	81.916	418.2	1257.6	6.2328	332.03	1056.4	13.84	560.25	1174.1	5.8094	613.12	1067.8	8.2767	372.02	1132	123.99	549.52	805.81	-148.89	491.51	1198.1	187.75	522.28	1052.2	261.63	532.64	925.13	291.84	617.84	825.02	280.61	657.93	738.63	234.14	628	723.3	297.86	691.39	689.47	281.4	485.07	1204.4	-183.05	484.52	1039.4	-255.87	436.93	930.59	-271.42	409.67	905.13	-204.78	470.62	833.73	-315.73	479.8	716.77	-310.2	433.19	732.68	-350.24	456.12	675.02	-360.87	474.05	628.12	224.15	445.06	462.24	183.23	514.11	541.09	186.43	383.35	267.86	114.86	318.43	211.44	97.442	514.13	646.22	-198.48	552.15	483.73	-147.29	580.76	587.18	-147.72	533.29	564.93	-176.37	592.27	401.83	-108.88	627.58	308.58	-41.792	610.88	217.69	-94.997	629.58	221.2	-35.812	723.75	37.851	-6.0448	771.36	35.43	-32.303	617.46	75.773	14.138	287.55	233.32	145.43	457.71	545.41	206.37	555.08	42.133	-18.468	638.21	138.54	-31.435	478.83	886.06	226.6	678.84	19.58	-86.539	259.57	153.5	80.552	289.98	826.84	-37.758	296.47	829.69	68.211	595.69	57.852	-63.385	400.28	381.63	165.15	555.51	813.89	171.58	230.42	41.703	24.04	273.83	26.867	54.755	128.02	161.43	58.505	200.92	139.95	27.608	203.18	37.704	112.21	177.61	134.37	106.07
449	2.245	588.13	1426.3	-16.951	579.29	1410.7	78.284	462.65	1347.8	-51.796	451.45	1334.2	80.926	423.79	1258.3	5.2638	337.58	1057	13.247	565.85	1174.7	5.0103	618.7	1068.5	7.0662	377.54	1133	123.33	555.55	806.94	-149.26	497.19	1199.1	186.87	527.17	1053.1	260.81	536.98	925.92	290.94	621.69	825.38	280.18	661.47	738.61	234.12	631.17	723.61	297.73	694.46	689.43	281.7	491.16	1204.9	-183.83	491.31	1039.8	-256.38	443.82	930.78	-271.89	416.44	905.56	-205.26	478.04	833.86	-315.78	487.76	716.96	-309.78	441.21	732.49	-350.06	464.35	674.8	-360.29	481.34	628.22	224.23	455.33	461.7	184.2	522.99	541.79	186.96	393.14	267.64	116.7	327.21	212.47	98.916	520.04	647.18	-198.92	557.47	484.53	-147.81	586.3	587.89	-147.98	538.92	565.8	-176.84	597.02	402.19	-109.25	631.01	308.29	-41.984	613.57	217.52	-95.215	631.89	220.89	-35.898	723.88	36.954	-5.7908	771.64	34.252	-31.869	617.75	75.653	14.225	296.21	235.42	146.29	466.51	545.19	206.86	555.18	42.355	-18.651	639.5	138.11	-31.341	483.39	887.08	225.28	678.83	19.532	-86.767	267.3	155.64	81.776	295.44	827.3	-37.47	302.44	829.34	68.72	596.12	57.843	-63.412	411.32	380.97	166.31	561.85	813.95	170.15	234.19	43.19	24.572	275.72	26.743	55.818	136.57	167.15	58.228	208.98	143.13	28.209	206.32	40.126	112.24	184.57	138.3	106.26
450	2.25	593.8	1426.9	-17.813	584.83	1411.4	77.41	468.32	1348.4	-52.767	456.93	1335	79.968	429.32	1258.9	4.3526	343.12	1057.6	12.705	571.42	1175.3	4.2543	624.23	1069.2	5.8794	383.04	1134	122.73	561.51	808.12	-149.65	502.82	1200.2	186.02	532.06	1054	260.03	541.3	926.77	290.05	625.49	825.77	279.76	664.94	738.6	234.11	634.26	723.95	297.61	697.43	689.37	281.99	497.2	1205.5	-184.54	498.15	1040.3	-256.83	450.74	931.04	-272.34	423.21	906.07	-205.75	485.56	834.06	-315.79	495.89	717.26	-309.3	449.4	732.36	-349.83	472.78	674.64	-359.64	488.68	628.35	224.28	465.77	461.2	185.11	531.97	542.57	187.48	403.18	267.51	118.48	336.3	213.58	100.36	525.8	648.07	-199.38	562.53	485.24	-148.32	591.69	588.48	-148.33	544.34	566.59	-177.33	601.5	402.46	-109.61	634.22	307.99	-42.154	616.07	217.35	-95.408	634.04	220.58	-35.969	723.94	36.237	-5.5593	771.85	33.319	-31.459	617.98	75.549	14.309	305.21	237.56	147.13	475.4	544.99	207.31	555.25	42.545	-18.806	640.67	137.69	-31.238	487.95	888.16	223.94	678.8	19.565	-86.975	275.38	157.83	82.999	300.87	827.84	-37.19	308.39	829.05	69.203	596.48	57.844	-63.428	422.54	380.36	167.43	568.13	814.05	168.78	238.58	44.826	25.267	278.21	26.646	57.14	145.48	172.72	58.003	217.39	146.28	28.809	210.04	42.756	112.39	191.96	142.22	106.47
451	2.255	599.48	1427.5	-18.668	590.38	1412.1	76.548	473.97	1349	-53.706	462.39	1335.8	79.043	434.76	1259.6	3.4999	348.64	1058.2	12.211	576.95	1176	3.545	629.72	1069.9	4.7255	388.51	1135	122.18	567.38	809.32	-150.05	508.41	1201.3	185.21	536.96	1055	259.27	545.6	927.65	289.18	629.26	826.2	279.37	668.34	738.61	234.11	637.29	724.31	297.52	700.31	689.29	282.28	503.16	1206.2	-185.19	505.05	1040.9	-257.22	457.68	931.36	-272.78	429.99	906.65	-206.22	493.17	834.34	-315.77	504.17	717.64	-308.77	457.76	732.28	-349.56	481.41	674.52	-358.91	496.04	628.5	224.29	476.35	460.77	185.97	541.03	543.43	187.96	413.43	267.49	120.16	345.68	214.77	101.74	531.41	648.88	-199.85	567.32	485.85	-148.84	596.93	588.94	-148.77	549.55	567.29	-177.84	605.73	402.64	-109.97	637.23	307.69	-42.315	618.39	217.16	-95.584	636.04	220.27	-36.034	723.96	35.676	-5.3498	772	32.599	-31.07	618.17	75.457	14.388	314.51	239.74	147.93	484.37	544.82	207.69	555.29	42.708	-18.935	641.74	137.3	-31.139	492.51	889.29	222.59	678.75	19.656	-87.167	283.78	160.06	84.195	306.28	828.47	-36.924	314.31	828.85	69.647	596.78	57.853	-63.435	433.88	379.82	168.46	574.36	814.18	167.45	243.64	46.596	26.146	281.38	26.592	58.741	154.7	178.08	57.827	226.12	149.39	29.395	214.41	45.578	112.68	199.74	146.1	106.69
452	2.26	605.15	1428	-19.509	595.92	1412.8	75.7	479.58	1349.7	-54.61	467.82	1336.7	78.153	440.15	1260.2	2.7057	354.15	1058.9	11.766	582.43	1176.7	2.8852	635.16	1070.7	3.6139	393.95	1136	121.68	573.16	810.54	-150.46	513.93	1202.5	184.45	541.88	1056.1	258.54	549.88	928.56	288.32	632.99	826.64	279.01	671.69	738.63	234.13	640.28	724.7	297.44	703.14	689.18	282.54	509.06	1206.8	-185.79	511.99	1041.5	-257.55	464.65	931.73	-273.21	436.76	907.28	-206.7	500.86	834.69	-315.7	512.61	718.1	-308.18	466.27	732.24	-349.24	490.22	674.46	-358.12	503.41	628.69	224.26	487.03	460.43	186.74	550.13	544.37	188.4	423.88	267.59	121.72	355.31	216.05	103.03	536.85	649.62	-200.34	571.86	486.38	-149.35	602.02	589.27	-149.29	554.55	567.91	-178.37	609.71	402.74	-110.32	640.06	307.37	-42.48	620.53	216.96	-95.749	637.91	219.96	-36.106	723.95	35.247	-5.1615	772.11	32.061	-30.704	618.32	75.374	14.459	324.11	241.92	148.68	493.38	544.7	208	555.31	42.849	-19.042	642.72	136.93	-31.057	497.07	890.45	221.24	678.68	19.79	-87.34	292.49	162.3	85.336	311.68	829.18	-36.678	320.21	828.72	70.046	597.02	57.867	-63.434	445.31	379.38	169.41	580.52	814.37	166.2	249.44	48.476	27.224	285.31	26.599	60.631	164.18	183.18	57.688	235.13	152.44	29.958	219.47	48.567	113.12	207.91	149.93	106.94
453	2.265	610.82	1428.6	-20.335	601.46	1413.6	74.873	485.16	1350.4	-55.477	473.22	1337.7	77.3	445.47	1260.9	1.9698	359.64	1059.5	11.365	587.88	1177.5	2.2768	640.56	1071.5	2.5534	399.36	1137	121.22	578.83	811.76	-150.87	519.4	1203.6	183.73	546.8	1057.1	257.86	554.15	929.48	287.5	636.69	827.09	278.69	675	738.65	234.16	643.25	725.11	297.38	705.91	689.05	282.78	514.87	1207.6	-186.33	518.94	1042.2	-257.83	471.63	932.15	-273.62	443.52	907.95	-207.19	508.63	835.1	-315.61	521.2	718.63	-307.54	474.94	732.25	-348.87	499.22	674.46	-357.27	510.78	628.91	224.19	497.76	460.18	187.43	559.24	545.39	188.77	434.48	267.82	123.11	365.17	217.39	104.2	542.14	650.29	-200.82	576.13	486.82	-149.86	606.96	589.48	-149.88	559.35	568.45	-178.9	613.44	402.77	-110.68	642.73	307.04	-42.663	622.49	216.75	-95.913	639.66	219.66	-36.198	723.91	34.93	-4.9937	772.2	31.674	-30.363	618.45	75.301	14.519	333.96	244.09	149.37	502.41	544.65	208.23	555.31	42.972	-19.132	643.63	136.56	-31.004	501.63	891.63	219.91	678.61	19.948	-87.498	301.5	164.55	86.398	317.05	829.95	-36.456	326.06	828.67	70.391	597.22	57.885	-63.427	456.77	379.07	170.25	586.6	814.61	165.02	255.99	50.432	28.511	290.07	26.688	62.806	173.89	187.96	57.571	244.4	155.41	30.486	225.25	51.689	113.73	216.44	153.67	107.19
